<?xml version="1.0" encoding="UTF-8"?>
<svg id="Layer_13" data-name="Layer 13" xmlns="http://www.w3.org/2000/svg" xmlns:xlink="http://www.w3.org/1999/xlink" viewBox="0 0 512 512">
  <defs>
    <style>
      .cls-1 {
        fill: url(#linear-gradient);
      }

      .cls-1, .cls-2, .cls-3, .cls-4 {
        stroke-width: 0px;
      }

      .cls-2 {
        fill: url(#radial-gradient);
      }

      .cls-3 {
        fill: url(#linear-gradient-2);
      }

      .cls-4 {
        fill: #fff1eb;
      }
    </style>
    <radialGradient id="radial-gradient" cx="256" cy="-4193.45" fx="256" fy="-4193.45" r="200.83" gradientTransform="translate(0 2310.48) scale(1 .45)" gradientUnits="userSpaceOnUse">
      <stop offset="0" stop-color="#fe7737" stop-opacity=".6"/>
      <stop offset="1" stop-color="#fe7837" stop-opacity="0"/>
    </radialGradient>
    <linearGradient id="linear-gradient" x1="419.06" y1="330.78" x2="203.82" y2="115.54" gradientUnits="userSpaceOnUse">
      <stop offset="0" stop-color="#e25833"/>
      <stop offset="1" stop-color="#f46e45"/>
    </linearGradient>
    <linearGradient id="linear-gradient-2" x1="348.78" y1="401.46" x2="105.83" y2="158.51" gradientUnits="userSpaceOnUse">
      <stop offset="0" stop-color="#fe7838"/>
      <stop offset=".54" stop-color="#fe7636"/>
      <stop offset="1" stop-color="#ffad8a"/>
    </linearGradient>
  </defs>
  <path class="cls-4" d="m496.52,129.85c-13.43-49.48-64.89-100.93-114.37-114.37C351.81,7.92,311.17.13,256,0c-55.17.14-95.81,7.92-126.15,15.49C80.38,28.92,28.92,80.37,15.48,129.85,7.92,160.19.13,200.83,0,256c.14,55.17,7.92,95.81,15.49,126.15,13.44,49.48,64.89,100.93,114.37,114.37,30.34,7.57,70.98,15.35,126.15,15.49,55.16-.14,95.81-7.92,126.15-15.49,49.48-13.44,100.93-64.89,114.37-114.37,7.57-30.33,15.35-70.98,15.49-126.15-.14-55.17-7.92-95.81-15.49-126.15Z"/>
  <path class="cls-2" d="m444.68,366.21c-10.54-17.58-50.91-35.87-89.72-40.64-23.8-2.69-55.68-5.46-98.96-5.5-43.28.05-75.17,2.81-98.96,5.5-38.81,4.78-79.18,23.06-89.72,40.64-5.94,10.78-12.04,25.22-12.15,44.83.11,19.6,6.21,34.05,12.15,44.83,10.54,17.58,50.91,35.87,89.72,40.64,23.8,2.69,55.69,5.46,98.96,5.5,43.28-.05,75.16-2.82,98.96-5.5,38.82-4.77,79.18-23.06,89.72-40.64,5.93-10.78,12.04-25.22,12.15-44.83-.11-19.6-6.22-34.05-12.15-44.83Z"/>
  <g id="FOLDER">
    <path class="cls-1" d="m175.06,159.07c1.24-5.21,2.33-9.57,3.05-12.05,3.46-11.99,14-21.49,25-22.55,6.61-.64,15.6-1.1,27.77-1.1,12.17,0,20.97.46,27.31,1.1,10.56,1.06,17.12,10.56,15.56,22.55,0,.03,0,.06-.01.1-1.25,9.47,4.4,16.72,12.98,16.62,6.98-.09,13.58-.13,19.29-.13,26.51,0,71.69,1,85.52,2.39,23.01,2.31,37.3,23.01,33.91,49.13-2.04,15.7-4.43,31.45-10.6,60.93-6.17,29.48-10.37,45.23-14.9,60.93-.48,1.66-1.02,3.29-1.62,4.9,0,0-12.37,22.52-20.71,30.31l-216.86-150.37,14.3-62.76Z"/>
    <path class="cls-3" d="m109.91,294.96c5.64,24.55,9.55,37.68,13.8,50.75,7.07,21.76,29.65,39,53.59,40.92,14.38,1.16,59.97,1.99,86.48,1.99s71.71-.84,85.57-1.99c23.06-1.92,37.72-19.17,34.8-40.92-1.75-13.08-3.86-26.2-9.5-50.75-5.64-24.55-9.55-37.68-13.8-50.75-7.07-21.76-29.65-39-53.59-40.92-14.38-1.16-59.97-1.99-86.48-1.99-5.71,0-12.29.04-19.24.11-8.53.09-17.08-5.95-19.63-13.84,0-.03-.02-.05-.03-.08-3.25-9.99-13.61-17.9-24.6-18.78-6.6-.53-15.58-.91-27.75-.91-12.17,0-20.97.38-27.33.91-10.58.88-17.31,8.8-15.97,18.78.8,6,4.82,25.3,7.41,36.57l16.28,70.91Z"/>
  </g>
</svg>